<?xml version="1.0" standalone="no"?>
<!DOCTYPE svg PUBLIC "-//W3C//DTD SVG 20010904//EN"
 "http://www.w3.org/TR/2001/REC-SVG-20010904/DTD/svg10.dtd">
<svg version="1.0" xmlns="http://www.w3.org/2000/svg"
 width="800.000000pt" height="800.000000pt" viewBox="0 0 800.000000 800.000000"
 preserveAspectRatio="xMidYMid meet">

<g transform="translate(0.000000,800.000000) scale(0.100000,-0.100000)"
fill="#000000" stroke="none">
<path d="M3750 7994 c-840 -61 -1607 -359 -2260 -880 -173 -138 -466 -431
-604 -604 -482 -604 -767 -1288 -863 -2070 -24 -204 -24 -676 0 -880 96 -782
381 -1466 863 -2070 138 -173 431 -466 604 -604 604 -482 1288 -767 2070 -863
204 -24 676 -24 880 0 782 96 1466 381 2070 863 173 138 466 431 604 604 482
604 767 1288 863 2070 24 204 24 676 0 880 -96 782 -381 1466 -863 2070 -138
173 -431 466 -604 604 -601 479 -1293 769 -2060 861 -129 16 -577 28 -700 19z
m758 -2396 c9 -9 12 -68 12 -205 0 -180 -1 -193 -19 -203 -21 -11 -408 -15
-435 -4 -14 5 -16 33 -16 208 0 112 3 206 7 209 12 13 438 8 451 -5z m-1098
-508 c15 -23 13 -383 -2 -398 -9 -9 -75 -12 -234 -12 -193 0 -223 2 -228 16
-3 9 -6 96 -6 195 0 240 -22 221 251 217 173 -2 211 -6 219 -18z m543 7 c16
-11 17 -33 15 -212 l-3 -200 -230 0 -230 0 -3 200 c-2 179 -1 201 15 212 12
10 73 13 218 13 145 0 206 -3 218 -13z m541 3 l26 -10 0 -194 c0 -152 -3 -196
-14 -205 -9 -8 -79 -11 -232 -9 l-219 3 -3 200 c-2 179 -1 201 15 212 21 16
388 18 427 3z m1104 -149 c33 -22 79 -56 102 -77 85 -77 177 -232 201 -339
l11 -51 133 4 c193 7 313 -19 419 -90 41 -27 47 -34 41 -57 -12 -48 -54 -126
-96 -176 -121 -147 -284 -226 -501 -243 l-90 -7 -52 -120 c-353 -813 -902
-1244 -1759 -1377 -119 -18 -185 -22 -412 -22 -276 -1 -354 6 -549 45 -191 38
-377 110 -493 190 -280 193 -474 600 -522 1093 -23 231 -12 297 58 343 l34 23
1507 0 c1592 0 1577 0 1725 45 81 24 81 25 51 88 -85 180 -78 401 19 604 36
78 91 163 104 163 4 0 35 -18 69 -39z m-2740 -363 c18 -18 17 -392 -2 -407 -9
-8 -79 -11 -232 -9 l-219 3 -3 199 c-2 138 1 203 9 212 15 19 428 21 447 2z
m546 -4 c13 -13 16 -46 16 -203 0 -132 -4 -191 -12 -199 -9 -9 -74 -12 -230
-12 -209 0 -218 1 -228 20 -7 14 -10 85 -8 206 2 151 6 186 18 194 8 5 108 10
222 10 175 0 209 -2 222 -16z m547 6 c18 -10 19 -23 19 -204 0 -152 -3 -196
-14 -205 -9 -8 -79 -11 -232 -9 l-219 3 -3 199 c-2 138 1 203 9 212 9 11 54
14 216 14 122 0 212 -4 224 -10z m550 0 c18 -10 19 -23 19 -204 0 -152 -3
-196 -14 -205 -9 -8 -79 -11 -232 -9 l-219 3 -3 199 c-2 138 1 203 9 212 9 11
54 14 216 14 122 0 212 -4 224 -10z m550 0 c18 -10 19 -23 19 -204 0 -152 -3
-196 -14 -205 -9 -8 -79 -11 -232 -9 l-219 3 -3 199 c-2 138 1 203 9 212 9 11
54 14 216 14 122 0 212 -4 224 -10z"/>
</g>
</svg>
