<?xml version="1.0" standalone="no"?>
<!DOCTYPE svg PUBLIC "-//W3C//DTD SVG 20010904//EN"
 "http://www.w3.org/TR/2001/REC-SVG-20010904/DTD/svg10.dtd">
<svg version="1.0" xmlns="http://www.w3.org/2000/svg"
 width="300.000000pt" height="300.000000pt" viewBox="0 0 300.000000 300.000000"
 preserveAspectRatio="xMidYMid meet">

<g transform="translate(0.000000,300.000000) scale(0.100000,-0.100000)"
fill="#000000" stroke="none">
<path d="M1135 2850 c-241 -14 -576 -66 -682 -106 l-43 -16 0 -427 c0 -235 2
-430 5 -433 3 -3 43 3 88 13 129 30 350 66 492 81 199 20 856 17 1055 -5 129
-15 432 -69 518 -93 l22 -6 -2 438 -3 439 -90 23 c-137 34 -294 61 -460 77
-180 18 -704 27 -900 15z"/>
<path d="M1265 1944 c-276 -10 -459 -32 -707 -85 l-148 -32 0 -346 c0 -190 4
-351 8 -357 4 -6 32 -16 62 -22 415 -89 499 -97 1015 -97 348 0 459 4 580 18
137 16 385 62 478 87 l37 11 0 353 0 353 -147 31 c-169 37 -298 57 -463 71
-125 11 -571 20 -715 15z"/>
<path d="M417 1074 c-4 -4 -7 -189 -7 -411 l0 -403 23 -10 c32 -14 303 -67
432 -84 186 -26 512 -39 775 -32 369 9 537 28 808 87 l142 32 0 413 c0 246 -4
414 -9 414 -5 0 -60 -11 -123 -24 -265 -57 -390 -72 -715 -86 -287 -13 -679 0
-895 29 -118 16 -295 50 -401 76 -13 4 -26 3 -30 -1z"/>
</g>
</svg>
